<?xml version="1.0" encoding="utf-8"?>
<!-- Generator: Adobe Illustrator 16.0.0, SVG Export Plug-In . SVG Version: 6.00 Build 0)  -->
<!DOCTYPE svg PUBLIC "-//W3C//DTD SVG 1.1//EN" "http://www.w3.org/Graphics/SVG/1.1/DTD/svg11.dtd">
<svg version="1.1" id="Layer_1" xmlns="http://www.w3.org/2000/svg" xmlns:xlink="http://www.w3.org/1999/xlink" x="0px" y="0px"
	 width="60px" height="60px" viewBox="0 0 60 60" enable-background="new 0 0 60 60" xml:space="preserve">
<rect x="0.968" y="1.052" fill="none" width="58" height="58"/>
<rect x="0.968" y="1.052" fill="none" width="58" height="58"/>
<rect x="0.968" y="1.052" fill="none" width="58" height="58"/>
<rect x="0.968" y="1.052" fill="none" width="58" height="58"/>
<circle fill="#FEB155" cx="29.968" cy="30.052" r="29"/>
<g>
	<path fill-rule="evenodd" clip-rule="evenodd" d="M12.14,18.786c0-0.464,0-0.928,0-1.393c0.025-0.109,0.062-0.218,0.074-0.33
		c0.238-2.088,1.571-3.603,3.609-4.087c0.301-0.072,0.608-0.12,0.913-0.179c0.487,0,0.975,0,1.462,0
		c0.216,0.035,0.431,0.072,0.647,0.104c2.167,0.323,4.167,1.135,6.109,2.11c0.22,0.11,0.417,0.138,0.656,0.07
		c2.903-0.818,5.809-0.813,8.711,0.002c0.24,0.067,0.438,0.043,0.657-0.07c1.516-0.782,3.084-1.438,4.749-1.832
		c0.685-0.162,1.386-0.258,2.079-0.384c0.464,0,0.929,0,1.393,0c0.109,0.025,0.218,0.062,0.329,0.075
		c2.098,0.243,3.604,1.57,4.087,3.608c0.071,0.302,0.121,0.609,0.181,0.913c0,0.488,0,0.975,0,1.462
		c-0.084,0.489-0.152,0.981-0.253,1.466c-0.391,1.885-1.134,3.641-1.981,5.358c-0.065,0.13-0.105,0.314-0.068,0.448
		c0.824,2.951,0.851,5.9,0.017,8.852c-0.067,0.239-0.041,0.438,0.071,0.657c0.816,1.604,1.504,3.258,1.902,5.02
		c0.13,0.574,0.209,1.159,0.313,1.739c0,0.487,0,0.975,0,1.462c-0.024,0.112-0.057,0.223-0.068,0.336
		c-0.218,1.961-1.434,3.43-3.324,3.998c-1.376,0.415-2.756,0.276-4.131,0.006c-0.413-0.082-0.618-0.415-0.557-0.795
		c0.057-0.353,0.354-0.571,0.762-0.555c0.104,0.004,0.207,0.022,0.31,0.04c0.872,0.155,1.746,0.244,2.629,0.1
		c1.016-0.165,1.89-0.571,2.43-1.497c0.524-0.897,0.608-1.883,0.528-2.895c-0.14-1.721-0.688-3.328-1.355-4.903
		c-0.072-0.171-0.156-0.337-0.218-0.47c-0.557,0.922-1.055,1.869-1.666,2.736c-1.903,2.699-4.421,4.636-7.517,5.791
		c-3.297,1.229-6.648,1.354-10.045,0.428c-0.187-0.05-0.428-0.002-0.616,0.073c-1.311,0.523-2.591,1.131-3.925,1.584
		c-1.625,0.553-3.311,0.822-5.032,0.475c-1.638-0.331-2.84-1.226-3.438-2.817c-0.197-0.523-0.285-1.089-0.424-1.635
		c0-0.464,0-0.929,0-1.394c0.073-0.467,0.142-0.936,0.222-1.403c0.085-0.494,0.409-0.756,0.834-0.687
		c0.399,0.064,0.606,0.406,0.544,0.901c-0.009,0.069-0.029,0.136-0.041,0.205c-0.147,0.86-0.232,1.723-0.093,2.595
		c0.213,1.329,0.863,2.311,2.192,2.742c0.727,0.236,1.474,0.276,2.234,0.211c1.685-0.145,3.26-0.68,4.804-1.322
		c0.193-0.08,0.379-0.176,0.615-0.286c-0.296-0.148-0.534-0.267-0.771-0.385c-2.096-1.051-3.894-2.481-5.329-4.331
		c-3.353-4.319-4.304-9.144-2.928-14.429c0.065-0.254,0.038-0.459-0.08-0.689c-0.775-1.509-1.43-3.067-1.82-4.722
		C12.36,20.179,12.266,19.479,12.14,18.786z M15.868,26.622c-0.025-0.021-0.052-0.043-0.078-0.064
		c-0.026,0.076-0.057,0.151-0.077,0.228c-0.529,1.989-0.688,4.011-0.33,6.036c1.001,5.66,4.211,9.542,9.548,11.664
		c0.117,0.046,0.304,0.034,0.412-0.029c0.916-0.545,1.843-1.077,2.728-1.671c3.753-2.515,7.061-5.537,10.069-8.897
		c0.284-0.316,0.347-0.564,0.208-0.973c-0.261-0.767-0.36-1.554,0.023-2.337c0.09-0.182,0.113-0.449,0.053-0.642
		c-0.212-0.669-0.473-1.323-0.719-1.981c-0.081-0.216-0.204-0.419-0.261-0.641c-0.139-0.531-0.188-0.567-0.727-0.485
		c-0.446,0.067-0.896,0.157-1.344,0.161c-0.769,0.005-1.168-0.422-1.19-1.191c-0.003-0.089-0.009-0.177-0.013-0.249
		c-0.284-0.07-0.558-0.098-0.794-0.204c-1.044-0.466-1.607-1.371-2.045-2.36c-0.305-0.69-0.501-1.41-0.001-2.127
		c-1.791-1.431-3.636-2.74-5.659-3.879c0.073,0.515,0.139,0.973,0.204,1.43c0.111,0.767-0.247,1.218-1.03,1.211
		c-0.898-0.007-1.626,0.297-2.188,1.003c-0.315,0.395-0.741,0.623-1.226,0.747c-0.206,0.053-0.412,0.103-0.704,0.176
		c0.191,0.105,0.303,0.186,0.428,0.231c0.816,0.295,1.624,0.622,2.456,0.862c0.991,0.287,1.752,0.822,2.245,1.732
		c0.078,0.142,0.17,0.281,0.279,0.398c0.116,0.125,0.245,0.272,0.397,0.325c0.828,0.284,1.35,0.881,1.712,1.637
		c0.209,0.438,0.554,0.65,1.007,0.768c0.525,0.137,1.054,0.285,1.557,0.488c1.146,0.464,1.473,1.549,0.81,2.592
		c-0.238,0.377-0.571,0.627-1.002,0.76c-0.112,0.034-0.243,0.128-0.289,0.229c-0.176,0.387-0.263,0.824-0.488,1.174
		c-0.456,0.704-0.701,1.447-0.72,2.286c-0.019,0.735-0.303,1.35-0.973,1.738c-0.333,0.193-0.557,0.502-0.55,0.877
		c0.009,0.502,0.103,1.003,0.169,1.503c0.082,0.618,0.243,1.234,0.245,1.852c0.003,1.168-1.101,2-2.246,1.768
		c-0.696-0.142-1.21-0.555-1.655-1.08c-0.759-0.894-1.287-1.895-1.439-3.072c-0.046-0.353,0.034-0.675,0.31-0.917
		c0.764-0.673,0.801-1.473,0.484-2.377c-0.162-0.462-0.295-0.958-0.313-1.442c-0.047-1.165,0.09-1.003-0.922-1.583
		c-1.281-0.734-2.213-1.93-1.561-3.797c0.171-0.49,0.253-1.01,0.369-1.519c0.055-0.241,0-0.394-0.276-0.495
		c-0.287-0.104-0.556-0.287-0.797-0.479c-0.298-0.238-0.562-0.521-0.838-0.785c-0.251-0.241-0.516-0.283-0.813-0.078
		c-0.448,0.309-0.893,0.625-1.356,0.91C16.608,26.264,16.232,26.433,15.868,26.622z M16.523,24.605
		c0.444-0.269,0.856-0.55,1.297-0.778c0.718-0.372,1.417-0.295,2.05,0.21c0.28,0.224,0.515,0.504,0.799,0.723
		c0.262,0.2,0.545,0.385,0.846,0.516c0.462,0.203,0.777,0.516,0.859,1.01c0.051,0.304,0.078,0.631,0.021,0.93
		c-0.134,0.705-0.313,1.401-0.499,2.095c-0.114,0.433-0.047,0.828,0.256,1.13c0.291,0.29,0.619,0.576,0.984,0.752
		c0.996,0.478,1.488,1.221,1.391,2.33c-0.042,0.475,0.082,0.905,0.246,1.35c0.478,1.297,0.409,2.525-0.586,3.595
		c-0.059,0.063-0.109,0.19-0.088,0.266c0.279,0.962,0.695,1.844,1.522,2.468c0.231,0.175,0.483,0.28,0.775,0.13
		c0.309-0.16,0.269-0.45,0.226-0.703c-0.105-0.604-0.262-1.199-0.374-1.802c-0.244-1.305-0.021-2.44,1.157-3.253
		c0.163-0.112,0.309-0.377,0.31-0.572c0.012-1.183,0.407-2.22,1.055-3.189c0.105-0.158,0.146-0.391,0.143-0.587
		c-0.013-0.68,0.26-1.03,0.938-1.151c0.136-0.024,0.306-0.016,0.398-0.095c0.129-0.11,0.233-0.28,0.275-0.443
		c0.016-0.064-0.149-0.211-0.26-0.263c-0.219-0.102-0.455-0.171-0.688-0.242c-0.299-0.091-0.601-0.171-0.902-0.254
		c-0.736-0.2-1.281-0.64-1.619-1.321c-0.256-0.516-0.584-0.915-1.157-1.126c-0.298-0.11-0.559-0.374-0.78-0.619
		c-0.262-0.291-0.435-0.661-0.698-0.95c-0.217-0.24-0.481-0.479-0.773-0.601c-0.619-0.257-1.279-0.413-1.904-0.656
		c-0.592-0.229-1.174-0.493-1.736-0.787c-0.363-0.19-0.639-0.507-0.755-0.918c-0.219-0.773,0.209-1.442,1.067-1.6
		c0.658-0.121,1.217-0.331,1.672-0.874c0.453-0.54,1.089-0.86,1.791-1.003c0.212-0.043,0.43-0.059,0.67-0.09
		c-0.069-0.417-0.132-0.8-0.195-1.187C21.438,17.861,17.284,21.927,16.523,24.605z M39.154,34.833
		c-1.765,1.987-3.638,3.834-5.636,5.553c-2.007,1.724-4.125,3.296-6.426,4.681c5.849,1.335,12.774-1.571,15.717-7.219
		c-0.294,0.089-0.655,0.287-1.02,0.291c-0.819,0.01-1.318-0.492-1.585-1.233C39.946,36.186,39.732,35.447,39.154,34.833z
		 M33.905,21.201c2.855,2.506,5.429,5.229,7.735,8.235c0.084-0.116,0.149-0.196,0.204-0.283c0.638-1.022,1.269-2.049,1.915-3.066
		c0.134-0.21,0.133-0.39,0.048-0.613c-0.885-2.306-2.226-4.299-4.088-5.923c-0.651-0.566-1.365-1.059-2.148-1.661
		c-0.438,0.483-0.831,0.909-1.213,1.346c-0.25,0.287-0.522,0.566-0.708,0.893c-0.195,0.342-0.438,0.596-0.795,0.737
		C34.559,20.983,34.254,21.079,33.905,21.201z M36.476,15.822c3.79,1.759,6.537,4.505,8.287,8.309
		c0.839-1.854,1.491-3.681,1.627-5.651c0.064-0.925-0.035-1.838-0.508-2.661c-0.681-1.187-1.813-1.575-3.085-1.615
		C40.557,14.132,38.53,14.931,36.476,15.822z M23.433,15.838c-0.059-0.04-0.085-0.064-0.116-0.079
		c-1.741-0.781-3.527-1.416-5.449-1.553c-0.961-0.068-1.906,0.03-2.756,0.537c-1.148,0.686-1.51,1.8-1.567,3.043
		c-0.078,1.727,0.438,3.34,1.03,4.93c0.17,0.457,0.381,0.899,0.599,1.407C16.919,20.313,19.659,17.585,23.433,15.838z M36.4,17.356
		c-3.141-1.589-7.107-1.789-9.252-1.167c0.013,0.018,0.024,0.04,0.043,0.051c1.842,1.122,3.592,2.376,5.27,3.731
		c0.08,0.064,0.235,0.083,0.341,0.06c0.372-0.084,0.738-0.194,1.104-0.298c0.258-0.073,0.488-0.161,0.609-0.452
		c0.08-0.196,0.238-0.371,0.395-0.523C35.382,18.297,35.869,17.853,36.4,17.356z M41.668,31.79
		c-0.502,0.626-0.956,1.183-1.393,1.754c-0.057,0.073-0.068,0.253-0.019,0.325c0.561,0.806,0.981,1.675,1.281,2.609
		c0.113,0.349,0.283,0.373,0.509,0.07c0.449-0.603,0.866-1.23,1.287-1.854c0.04-0.059,0.048-0.186,0.012-0.244
		C42.802,33.575,42.249,32.707,41.668,31.79z M44.235,33.165c0.154-0.387,0.369-0.716,0.407-1.065
		c0.078-0.698,0.098-1.41,0.069-2.114c-0.03-0.732-0.145-1.461-0.233-2.289c-0.671,1.008-1.281,1.918-1.881,2.833
		c-0.032,0.05-0.02,0.164,0.017,0.219C43.137,31.537,43.667,32.321,44.235,33.165z M35.62,25.585
		c0.133-0.017,0.245-0.026,0.356-0.046c0.116-0.021,0.23-0.053,0.434-0.1c-1.331-1.245-2.598-2.429-3.864-3.613
		c-0.029,0.027-0.059,0.053-0.087,0.08c0.087,0.521,0.341,0.969,0.64,1.398c0.327,0.472,0.701,0.822,1.341,0.854
		c0.669,0.034,1.053,0.474,1.146,1.145C35.597,25.392,35.607,25.482,35.62,25.585z M39.487,32.068
		c0.05,0.016,0.099,0.029,0.148,0.045c0.354-0.455,0.713-0.909,1.061-1.369c0.037-0.049,0.053-0.165,0.021-0.208
		c-0.285-0.388-0.583-0.766-0.877-1.146c-0.056,0.152-0.019,0.275-0.031,0.394c-0.047,0.466-0.104,0.933-0.169,1.397
		C39.598,31.479,39.538,31.773,39.487,32.068z"/>
	<path fill-rule="evenodd" clip-rule="evenodd" fill="#FFFFFF" d="M15.868,26.622c0.364-0.189,0.74-0.358,1.088-0.571
		c0.464-0.285,0.908-0.601,1.356-0.91c0.298-0.205,0.563-0.163,0.813,0.078c0.276,0.265,0.54,0.547,0.838,0.785
		c0.241,0.192,0.51,0.375,0.797,0.479c0.276,0.101,0.331,0.254,0.276,0.495c-0.116,0.509-0.198,1.029-0.369,1.519
		c-0.652,1.867,0.279,3.063,1.561,3.797c1.012,0.58,0.875,0.418,0.922,1.583c0.019,0.484,0.151,0.98,0.313,1.442
		c0.316,0.904,0.279,1.704-0.484,2.377c-0.275,0.242-0.355,0.564-0.31,0.917c0.152,1.178,0.681,2.179,1.439,3.072
		c0.445,0.525,0.959,0.938,1.655,1.08c1.146,0.232,2.249-0.6,2.246-1.768c-0.002-0.617-0.163-1.233-0.245-1.852
		c-0.066-0.5-0.16-1.001-0.169-1.503c-0.007-0.375,0.217-0.684,0.55-0.877c0.67-0.389,0.954-1.003,0.973-1.738
		c0.019-0.839,0.264-1.582,0.72-2.286c0.226-0.35,0.313-0.787,0.488-1.174c0.046-0.101,0.177-0.194,0.289-0.229
		c0.431-0.133,0.764-0.383,1.002-0.76c0.663-1.043,0.336-2.128-0.81-2.592c-0.503-0.203-1.031-0.351-1.557-0.488
		c-0.453-0.118-0.798-0.329-1.007-0.768c-0.362-0.756-0.884-1.353-1.712-1.637c-0.152-0.052-0.281-0.2-0.397-0.325
		c-0.109-0.117-0.201-0.256-0.279-0.398c-0.493-0.911-1.254-1.446-2.245-1.732c-0.832-0.24-1.64-0.567-2.456-0.862
		c-0.125-0.045-0.236-0.126-0.428-0.231c0.292-0.073,0.498-0.123,0.704-0.176c0.484-0.125,0.91-0.353,1.226-0.747
		c0.563-0.706,1.29-1.011,2.188-1.003c0.783,0.006,1.142-0.445,1.03-1.211c-0.065-0.458-0.131-0.915-0.204-1.43
		c2.023,1.14,3.868,2.448,5.659,3.879c-0.5,0.717-0.304,1.437,0.001,2.127c0.438,0.99,1.001,1.894,2.045,2.36
		c0.236,0.106,0.51,0.134,0.794,0.204c0.004,0.072,0.01,0.16,0.013,0.249c0.022,0.769,0.422,1.196,1.19,1.191
		c0.447-0.003,0.897-0.093,1.344-0.161c0.539-0.083,0.588-0.046,0.727,0.485c0.057,0.221,0.18,0.424,0.261,0.641
		c0.246,0.658,0.507,1.313,0.719,1.981c0.061,0.193,0.037,0.46-0.053,0.642c-0.384,0.783-0.284,1.57-0.023,2.337
		c0.139,0.408,0.076,0.656-0.208,0.973c-3.009,3.36-6.316,6.383-10.069,8.897c-0.885,0.594-1.812,1.126-2.728,1.671
		c-0.108,0.063-0.295,0.075-0.412,0.029c-5.337-2.122-8.547-6.004-9.548-11.664c-0.358-2.025-0.199-4.047,0.33-6.036
		c0.021-0.077,0.051-0.152,0.077-0.228C15.816,26.579,15.843,26.601,15.868,26.622z"/>
	<path fill-rule="evenodd" clip-rule="evenodd" fill="#FFFFFF" d="M16.523,24.605c0.761-2.678,4.914-6.744,7.731-7.56
		c0.063,0.387,0.126,0.77,0.195,1.187c-0.24,0.031-0.458,0.047-0.67,0.09c-0.702,0.143-1.338,0.463-1.791,1.003
		c-0.455,0.543-1.014,0.753-1.672,0.874c-0.858,0.158-1.286,0.826-1.067,1.6c0.116,0.411,0.392,0.728,0.755,0.918
		c0.563,0.294,1.145,0.558,1.736,0.787c0.625,0.243,1.285,0.399,1.904,0.656c0.292,0.122,0.557,0.361,0.773,0.601
		c0.264,0.29,0.437,0.66,0.698,0.95c0.222,0.245,0.482,0.509,0.78,0.619c0.573,0.212,0.901,0.61,1.157,1.126
		c0.338,0.681,0.883,1.121,1.619,1.321c0.302,0.083,0.604,0.163,0.902,0.254c0.233,0.071,0.47,0.14,0.688,0.242
		c0.11,0.051,0.275,0.199,0.26,0.263c-0.042,0.163-0.146,0.333-0.275,0.443c-0.093,0.079-0.263,0.071-0.398,0.095
		c-0.678,0.121-0.95,0.472-0.938,1.151c0.004,0.196-0.037,0.429-0.143,0.587c-0.647,0.97-1.043,2.007-1.055,3.189
		c-0.001,0.195-0.146,0.46-0.31,0.572c-1.179,0.813-1.401,1.948-1.157,3.253c0.112,0.603,0.269,1.197,0.374,1.802
		c0.043,0.253,0.083,0.543-0.226,0.703c-0.292,0.15-0.544,0.045-0.775-0.13c-0.827-0.624-1.243-1.506-1.522-2.468
		c-0.021-0.075,0.029-0.202,0.088-0.266c0.995-1.069,1.063-2.298,0.586-3.595c-0.164-0.444-0.288-0.875-0.246-1.35
		c0.098-1.109-0.395-1.853-1.391-2.33c-0.365-0.176-0.693-0.462-0.984-0.752c-0.303-0.303-0.37-0.698-0.256-1.13
		c0.186-0.694,0.365-1.391,0.499-2.095c0.057-0.298,0.029-0.625-0.021-0.93c-0.082-0.495-0.397-0.808-0.859-1.01
		c-0.301-0.131-0.584-0.316-0.846-0.516c-0.284-0.219-0.519-0.499-0.799-0.723c-0.633-0.506-1.332-0.583-2.05-0.21
		C17.38,24.055,16.968,24.336,16.523,24.605z"/>
	<path fill-rule="evenodd" clip-rule="evenodd" fill="#FFFFFF" d="M39.154,34.833c0.578,0.614,0.792,1.353,1.051,2.072
		c0.267,0.741,0.766,1.243,1.585,1.233c0.364-0.004,0.726-0.202,1.02-0.291c-2.942,5.647-9.868,8.554-15.717,7.219
		c2.301-1.385,4.419-2.957,6.426-4.681C35.517,38.667,37.39,36.82,39.154,34.833z"/>
	<path fill-rule="evenodd" clip-rule="evenodd" fill="#FFCC8E" d="M36.476,15.822c2.055-0.892,4.081-1.69,6.321-1.619
		c1.272,0.04,2.404,0.428,3.085,1.615c0.473,0.823,0.572,1.736,0.508,2.661c-0.136,1.97-0.788,3.798-1.627,5.651
		C43.013,20.328,40.266,17.581,36.476,15.822z"/>
	<path fill-rule="evenodd" clip-rule="evenodd" fill="#FFFFFF" d="M36.4,17.356c-0.531,0.497-1.019,0.941-1.49,1.402
		c-0.156,0.152-0.314,0.327-0.395,0.523c-0.121,0.291-0.352,0.379-0.609,0.452c-0.366,0.104-0.732,0.214-1.104,0.298
		c-0.105,0.024-0.261,0.005-0.341-0.06c-1.678-1.354-3.428-2.609-5.27-3.731c-0.019-0.011-0.03-0.034-0.043-0.051
		C29.293,15.567,33.26,15.767,36.4,17.356z"/>
	<path fill-rule="evenodd" clip-rule="evenodd" fill="#FFFFFF" d="M41.668,31.79c0.581,0.917,1.134,1.785,1.678,2.66
		c0.036,0.059,0.028,0.186-0.012,0.244c-0.421,0.624-0.838,1.252-1.287,1.854c-0.226,0.303-0.396,0.278-0.509-0.07
		c-0.3-0.935-0.721-1.804-1.281-2.609c-0.05-0.072-0.038-0.252,0.019-0.325C40.712,32.973,41.166,32.416,41.668,31.79z"/>
	<path fill-rule="evenodd" clip-rule="evenodd" fill="#FFFFFF" d="M44.235,33.165c-0.568-0.844-1.099-1.628-1.621-2.416
		c-0.036-0.055-0.049-0.169-0.017-0.219c0.6-0.915,1.21-1.825,1.881-2.833c0.089,0.827,0.203,1.557,0.233,2.289
		c0.028,0.704,0.009,1.416-0.069,2.114C44.604,32.449,44.39,32.778,44.235,33.165z"/>
	<path fill-rule="evenodd" clip-rule="evenodd" fill="#FFFFFF" d="M35.62,25.585c-0.013-0.104-0.023-0.193-0.035-0.282
		c-0.093-0.671-0.477-1.11-1.146-1.145c-0.64-0.033-1.014-0.383-1.341-0.854c-0.299-0.429-0.553-0.876-0.64-1.398
		c0.028-0.027,0.058-0.053,0.087-0.08c1.267,1.184,2.533,2.368,3.864,3.613c-0.203,0.047-0.317,0.079-0.434,0.1
		C35.865,25.56,35.753,25.569,35.62,25.585z"/>
	<path fill-rule="evenodd" clip-rule="evenodd" fill="#FFFFFF" d="M39.487,32.068c0.051-0.295,0.11-0.59,0.152-0.887
		c0.064-0.465,0.122-0.932,0.169-1.397c0.013-0.119-0.024-0.242,0.031-0.394c0.294,0.38,0.592,0.758,0.877,1.146
		c0.032,0.043,0.017,0.159-0.021,0.208c-0.348,0.46-0.706,0.914-1.061,1.369C39.586,32.098,39.537,32.084,39.487,32.068z"/>
	<path fill-rule="evenodd" clip-rule="evenodd" d="M37.86,46.084c0.387,0.005,0.678,0.296,0.68,0.677
		c0.002,0.386-0.324,0.711-0.704,0.703c-0.362-0.008-0.681-0.33-0.685-0.694C37.147,46.382,37.461,46.078,37.86,46.084z"/>
	<path fill-rule="evenodd" clip-rule="evenodd" d="M14.516,38.499c0.003,0.385-0.29,0.688-0.671,0.696
		c-0.39,0.008-0.721-0.317-0.713-0.7c0.007-0.373,0.322-0.679,0.699-0.678C14.215,37.818,14.513,38.115,14.516,38.499z"/>
</g>
</svg>
